<?xml version="1.0" standalone="no"?>
<!DOCTYPE svg PUBLIC "-//W3C//DTD SVG 20010904//EN"
 "http://www.w3.org/TR/2001/REC-SVG-20010904/DTD/svg10.dtd">
<svg version="1.0" xmlns="http://www.w3.org/2000/svg"
 width="1000.000000pt" height="1000.000000pt" viewBox="0 0 1000.000000 1000.000000"
 preserveAspectRatio="xMidYMid meet">
<metadata>
Created by potrace 1.11, written by Peter Selinger 2001-2013
</metadata>
<g transform="translate(0.000000,1000.000000) scale(0.100000,-0.100000)"
fill="#000000" stroke="none">
<path d="M2700 8720 c-96 -4 -206 -13 -245 -19 -293 -48 -620 -147 -820 -248
-202 -101 -293 -169 -481 -357 -175 -174 -274 -296 -357 -441 -65 -113 -68
-143 -23 -228 19 -38 68 -112 108 -165 130 -174 146 -197 165 -232 29 -51 80
-83 123 -76 48 8 83 36 97 79 21 63 8 89 -187 356 -49 68 -90 127 -90 131 0
11 60 103 123 187 89 120 348 371 449 437 96 62 188 110 195 102 4 -3 -1 -52
-10 -108 -40 -260 -42 -297 -42 -793 0 -457 2 -502 24 -670 37 -287 64 -376
170 -576 192 -359 279 -472 414 -534 90 -42 280 -90 435 -110 70 -9 195 -15
331 -15 195 0 227 2 287 21 150 46 276 126 446 282 266 244 383 424 496 762
97 292 111 431 112 1087 0 217 4 398 9 411 19 50 -3 87 -108 181 -55 49 -124
106 -154 127 -64 45 -414 242 -536 301 -118 56 -274 93 -452 107 -156 12 -204
12 -479 1z m309 -267 c0 -21 4 -227 7 -459 5 -348 3 -439 -10 -532 -15 -112
-63 -259 -91 -282 -9 -8 -79 -16 -182 -21 -93 -5 -249 -13 -348 -19 -99 -6
-240 -10 -312 -10 l-133 0 0 328 c0 326 9 457 46 687 7 50 14 116 14 147 l0
57 83 25 c283 85 460 112 754 115 l171 1 1 -37z"/>
<path d="M6255 8719 c-117 -9 -267 -39 -350 -70 -27 -10 -106 -34 -174 -54
-69 -19 -142 -44 -164 -56 -52 -26 -140 -94 -248 -189 -278 -244 -290 -256
-297 -285 -4 -16 -4 -109 -1 -205 4 -96 7 -336 8 -532 1 -197 5 -377 11 -400
5 -24 19 -94 30 -156 12 -63 44 -182 72 -265 113 -341 230 -519 496 -764 170
-156 296 -236 446 -282 60 -19 92 -21 287 -21 136 0 261 6 331 15 155 20 345
68 435 110 135 62 222 175 414 534 106 200 133 289 170 576 22 168 24 213 24
670 0 496 -2 533 -42 793 -9 56 -14 105 -10 108 7 8 99 -40 195 -102 101 -66
360 -317 449 -437 63 -84 123 -176 123 -187 0 -4 -41 -63 -90 -131 -195 -267
-208 -293 -187 -356 14 -43 49 -71 97 -79 43 -7 94 25 123 76 19 35 35 58 165
232 40 53 89 127 108 165 45 85 42 115 -23 228 -83 145 -182 267 -357 441
-188 188 -279 256 -481 357 -224 113 -620 226 -895 256 -136 14 -536 21 -665
10z m-61 -213 c20 -8 48 -34 67 -63 32 -46 34 -53 37 -153 2 -58 -1 -258 -7
-445 -9 -336 -10 -341 -41 -455 -39 -143 -63 -180 -132 -213 -98 -46 -433
-115 -669 -137 -117 -12 -148 -6 -186 35 l-23 24 0 439 0 439 123 119 c67 66
158 148 201 183 44 35 88 74 98 86 10 13 35 29 56 36 20 6 66 27 102 45 44 23
99 40 170 53 130 24 162 25 204 7z"/>
<path d="M5183 5820 c-12 -5 -30 -21 -40 -37 -17 -25 -18 -57 -18 -383 0 -425
7 -397 -139 -540 -53 -52 -116 -119 -139 -148 -23 -30 -85 -109 -138 -176
-122 -155 -152 -200 -194 -289 -53 -111 -77 -214 -78 -342 -2 -102 0 -114 25
-161 35 -66 85 -109 176 -151 121 -56 172 -63 497 -63 268 0 292 2 321 19 44
27 60 77 40 124 -25 60 -30 61 -371 68 -292 5 -313 7 -366 28 -30 12 -69 33
-85 46 -28 22 -29 26 -27 94 5 139 45 253 130 368 122 168 243 313 354 428
195 200 209 240 208 565 0 118 -4 280 -8 359 l-7 143 -32 29 c-33 30 -67 36
-109 19z"/>
<path d="M8455 3756 c-42 -18 -93 -79 -101 -121 -18 -98 45 -191 142 -210 110
-20 219 90 198 200 -20 106 -142 173 -239 131z"/>
<path d="M7415 3273 c-54 -11 -346 -112 -475 -163 -240 -95 -317 -128 -500
-215 -187 -88 -276 -120 -434 -154 -118 -26 -388 -66 -576 -86 -249 -27 -934
-15 -1133 20 -120 21 -401 99 -525 146 -162 62 -242 49 -261 -41 -5 -28 -12
-36 -33 -38 -34 -4 -75 -45 -83 -82 -4 -18 0 -42 10 -63 17 -35 288 -334 424
-466 111 -108 360 -303 574 -451 103 -72 273 -190 377 -262 105 -73 232 -162
283 -196 189 -131 515 -268 762 -322 184 -39 291 -50 520 -49 442 0 558 13
919 105 361 92 571 186 804 360 90 68 332 301 382 370 81 108 126 225 136 353
8 98 -10 352 -31 433 -36 140 -175 382 -292 508 -67 73 -158 135 -295 200
-164 78 -255 100 -407 99 -69 -1 -135 -3 -146 -6z m339 -234 c152 -51 260
-113 346 -199 121 -123 245 -345 257 -465 l6 -54 -52 6 c-34 4 -72 0 -109 -10
-31 -8 -105 -27 -164 -40 -160 -37 -315 -117 -508 -259 -85 -63 -202 -143
-259 -177 -139 -83 -180 -118 -238 -204 -61 -89 -178 -311 -186 -354 -8 -41
14 -114 47 -158 l26 -34 -47 -8 c-27 -4 -230 -8 -453 -8 -387 0 -410 1 -515
23 -259 56 -553 179 -740 310 -55 39 -197 137 -315 218 -459 316 -645 453
-808 593 -63 56 -406 421 -394 421 5 0 37 -12 71 -26 87 -35 436 -130 546
-148 157 -27 338 -36 709 -36 380 0 459 6 801 56 350 52 485 90 735 209 285
135 606 264 850 341 88 28 121 33 204 34 84 0 111 -4 190 -31z"/>
</g>
</svg>
